<mxfile host="Electron" modified="2023-09-02T16:12:56.972Z" agent="Mozilla/5.0 (Windows NT 10.0; Win64; x64) AppleWebKit/537.36 (KHTML, like Gecko) draw.io/21.6.8 Chrome/114.0.5735.289 Electron/25.5.0 Safari/537.36" etag="MTIfenb-UHWmMqgsUvOC" version="21.6.8" type="device">
  <diagram name="Stránka-1" id="ewsChwqIYGi5IESlV9jj">
    <mxGraphModel dx="724" dy="428" grid="1" gridSize="10" guides="1" tooltips="1" connect="1" arrows="1" fold="1" page="1" pageScale="1" pageWidth="827" pageHeight="1169" math="0" shadow="0">
      <root>
        <mxCell id="0" />
        <mxCell id="1" parent="0" />
        <mxCell id="c97EAskXmCdIL6t7Jlan-1" value="" style="rounded=0;whiteSpace=wrap;html=1;" vertex="1" parent="1">
          <mxGeometry x="350" y="230" width="170" height="290" as="geometry" />
        </mxCell>
        <mxCell id="c97EAskXmCdIL6t7Jlan-2" value="&lt;font style=&quot;font-size: 21px;&quot;&gt;Phone&lt;/font&gt;" style="text;html=1;align=center;verticalAlign=middle;resizable=0;points=[];autosize=1;strokeColor=none;fillColor=none;" vertex="1" parent="1">
          <mxGeometry x="395" y="180" width="80" height="40" as="geometry" />
        </mxCell>
        <mxCell id="c97EAskXmCdIL6t7Jlan-3" value="" style="rounded=0;whiteSpace=wrap;html=1;" vertex="1" parent="1">
          <mxGeometry x="350" y="480" width="170" height="40" as="geometry" />
        </mxCell>
        <mxCell id="c97EAskXmCdIL6t7Jlan-4" value="" style="ellipse;whiteSpace=wrap;html=1;aspect=fixed;" vertex="1" parent="1">
          <mxGeometry x="360" y="485" width="30" height="30" as="geometry" />
        </mxCell>
        <mxCell id="c97EAskXmCdIL6t7Jlan-5" value="" style="ellipse;whiteSpace=wrap;html=1;aspect=fixed;" vertex="1" parent="1">
          <mxGeometry x="398.5" y="485" width="30" height="30" as="geometry" />
        </mxCell>
        <mxCell id="c97EAskXmCdIL6t7Jlan-6" value="" style="ellipse;whiteSpace=wrap;html=1;aspect=fixed;" vertex="1" parent="1">
          <mxGeometry x="440" y="485" width="30" height="30" as="geometry" />
        </mxCell>
        <mxCell id="c97EAskXmCdIL6t7Jlan-8" value="" style="ellipse;whiteSpace=wrap;html=1;aspect=fixed;" vertex="1" parent="1">
          <mxGeometry x="480" y="485" width="30" height="30" as="geometry" />
        </mxCell>
        <mxCell id="c97EAskXmCdIL6t7Jlan-10" value="Položky" style="swimlane;fontStyle=0;childLayout=stackLayout;horizontal=1;startSize=30;horizontalStack=0;resizeParent=1;resizeParentMax=0;resizeLast=0;collapsible=1;marginBottom=0;whiteSpace=wrap;html=1;" vertex="1" parent="1">
          <mxGeometry x="570" y="330" width="230" height="150" as="geometry" />
        </mxCell>
        <mxCell id="c97EAskXmCdIL6t7Jlan-11" value="Objednávky" style="text;strokeColor=none;fillColor=none;align=left;verticalAlign=middle;spacingLeft=4;spacingRight=4;overflow=hidden;points=[[0,0.5],[1,0.5]];portConstraint=eastwest;rotatable=0;whiteSpace=wrap;html=1;" vertex="1" parent="c97EAskXmCdIL6t7Jlan-10">
          <mxGeometry y="30" width="230" height="30" as="geometry" />
        </mxCell>
        <mxCell id="c97EAskXmCdIL6t7Jlan-12" value="Platby (kredit, platby, pokyny k platbě)" style="text;strokeColor=none;fillColor=none;align=left;verticalAlign=middle;spacingLeft=4;spacingRight=4;overflow=hidden;points=[[0,0.5],[1,0.5]];portConstraint=eastwest;rotatable=0;whiteSpace=wrap;html=1;" vertex="1" parent="c97EAskXmCdIL6t7Jlan-10">
          <mxGeometry y="60" width="230" height="30" as="geometry" />
        </mxCell>
        <mxCell id="c97EAskXmCdIL6t7Jlan-17" value="Odběry" style="text;strokeColor=none;fillColor=none;align=left;verticalAlign=middle;spacingLeft=4;spacingRight=4;overflow=hidden;points=[[0,0.5],[1,0.5]];portConstraint=eastwest;rotatable=0;whiteSpace=wrap;html=1;" vertex="1" parent="c97EAskXmCdIL6t7Jlan-10">
          <mxGeometry y="90" width="230" height="30" as="geometry" />
        </mxCell>
        <mxCell id="c97EAskXmCdIL6t7Jlan-19" value="Účet (změna údajů, )" style="text;strokeColor=none;fillColor=none;align=left;verticalAlign=middle;spacingLeft=4;spacingRight=4;overflow=hidden;points=[[0,0.5],[1,0.5]];portConstraint=eastwest;rotatable=0;whiteSpace=wrap;html=1;" vertex="1" parent="c97EAskXmCdIL6t7Jlan-10">
          <mxGeometry y="120" width="230" height="30" as="geometry" />
        </mxCell>
      </root>
    </mxGraphModel>
  </diagram>
</mxfile>
